<?xml version="1.0" standalone="no"?>
<!DOCTYPE svg PUBLIC "-//W3C//DTD SVG 20010904//EN"
 "http://www.w3.org/TR/2001/REC-SVG-20010904/DTD/svg10.dtd">
<svg version="1.0" xmlns="http://www.w3.org/2000/svg"
 width="298.000000pt" height="298.000000pt" viewBox="0 0 298.000000 298.000000"
 preserveAspectRatio="xMidYMid meet">
<metadata>
Created by potrace 1.14, written by Peter Selinger 2001-2017
</metadata>
<g transform="translate(0.000000,298.000000) scale(0.100000,-0.100000)"
fill="#000000" stroke="none">
<path d="M751 2969 c-242 -41 -463 -184 -596 -384 -63 -95 -98 -172 -128 -280
-22 -79 -22 -89 -22 -815 0 -726 0 -736 22 -815 81 -294 287 -520 566 -620
154 -55 184 -57 947 -53 666 4 698 5 765 25 339 99 566 331 651 663 18 71 19
119 19 805 0 683 -1 734 -19 799 -89 330 -319 564 -646 659 -74 21 -89 21
-790 23 -402 1 -739 -2 -769 -7z m913 -792 c78 -36 676 -366 699 -385 22 -19
22 -65 0 -84 -38 -33 -691 -387 -742 -402 -82 -24 -202 -21 -281 8 -36 13
-157 75 -270 138 l-205 115 -3 56 -3 57 348 2 348 3 3 33 3 32 -383 -2 -383
-3 -3 -68 -3 -68 -77 42 c-98 54 -112 66 -112 100 0 36 -3 33 355 232 429 237
407 228 550 224 84 -2 109 -7 159 -30z m-834 -592 c30 -15 30 -16 30 -108 0
-50 7 -130 15 -177 9 -50 15 -146 15 -232 l0 -148 -65 0 -65 0 0 133 c0 73 7
170 15 217 8 47 15 140 15 208 0 67 2 122 5 122 4 0 19 -7 35 -15z m316 -325
c149 -82 214 -102 339 -103 124 -1 185 16 323 89 57 31 105 54 107 52 2 -2 13
-46 24 -98 12 -52 28 -112 37 -132 24 -54 16 -64 -58 -70 -92 -8 -179 -55
-331 -180 -87 -72 -110 -69 -223 27 -119 101 -208 145 -311 154 -90 7 -97 16
-64 84 24 49 41 130 41 193 0 24 1 44 3 44 2 0 52 -27 113 -60z"/>
</g>
</svg>
